# xmcd
#
# Track frame offsets:
#	150
#	15204
#	35520
#	51543
#	68115
#	85507
#	103872
#	123159
#	139284
#	157384
#
# Disc length: 2344 seconds
#
# Revision: 1
# Processed by: cddbd v1.5.2PL0 Copyright (c) Steve Scherf et al.
# Submitted via: EasyCDDAExtractor 15.3.0.1
#
DISCID=8509260a
DTITLE=Enrique Iglesias - Euphoria
DYEAR=2010
DGENRE=Latin
TTITLE0=Cuando Me Enamoro (Featuring Juan Luis Guerra)
TTITLE1=No Me Digas Que No (Featuring Wisin and Yandel)
TTITLE2=Ayer
TTITLE3=Dile Que
TTITLE4=I Like It (Featuring Pitbull)
TTITLE5=One Day At A Time (Featuring Akon)
TTITLE6=Heartbeat (Featuring Nicole Scherzinger)
TTITLE7=Dirty Dancer (With Usher)
TTITLE8=Tu Y Yo
TTITLE9=No Me Digas Que No
EXTD=
EXTT0=
EXTT1=
EXTT2=
EXTT3=
EXTT4=
EXTT5=
EXTT6=
EXTT7=
EXTT8=
EXTT9=
PLAYORDER=
